<svg width="1025" height="1024" viewBox="0 0 1025 1024" fill="none" xmlns="http://www.w3.org/2000/svg">
<path d="M771.887 306.87H676.7C669.52 306.87 663.7 312.69 663.7 319.87V415.057C663.7 422.237 669.52 428.057 676.7 428.057H771.887C779.067 428.057 784.887 422.237 784.887 415.057V319.87C784.887 312.69 779.067 306.87 771.887 306.87Z" fill="#FFB800"/>
<path d="M399.133 450.249C407.323 442.059 421.326 447.86 421.326 459.441V657.431C421.326 664.611 415.505 670.431 408.326 670.431H210.336C198.754 670.431 192.954 656.428 201.144 648.239L399.133 450.249Z" fill="#00741A"/>
<path d="M520.321 450.249C528.51 442.059 542.513 447.86 542.513 459.441V657.431C542.513 664.611 536.693 670.431 529.513 670.431H331.523C319.942 670.431 314.142 656.428 322.331 648.239L520.321 450.249Z" fill="#009721"/>
<path d="M523.7 670.432C512.118 670.432 506.318 656.429 514.508 648.239L654.507 508.24C659.584 503.163 667.815 503.163 672.892 508.24L812.891 648.239C821.081 656.429 815.28 670.432 803.699 670.432H523.7Z" fill="#00BB29"/>
</svg>
