<svg width="467" height="472" viewBox="0 0 467 472" fill="none" xmlns="http://www.w3.org/2000/svg">
<g clip-path="url(#clip0_25_8)">
<path d="M442.019 0.632087C447.453 -0.344367 452.331 -0.189552 456.652 1.09693C460.973 2.3834 464.945 4.55247 468.568 7.60377C472.191 10.655 475.045 14.1668 477.131 18.1389C479.218 22.111 480.256 26.8794 480.248 32.4436L481.377 261.064C482.03 268.3 482.365 275.628 482.365 283.034C482.365 416.332 374.306 524.39 241.008 524.39C107.711 524.39 -0.34704 416.331 -0.347046 283.034C-0.347046 170.374 76.8433 75.7427 181.221 49.1419C184.651 47.4225 188.263 46.2248 192.057 45.5501L442.019 0.632087Z" fill="#EDEDED"/>
<ellipse cx="142.866" cy="365.228" rx="46.7935" ry="81.4155" fill="white"/>
</g>
<defs>
<clipPath id="clip0_25_8">
<rect width="467" height="472" fill="white"/>
</clipPath>
</defs>
</svg>
