<?xml version="1.0" encoding="UTF-8"?>
<svg id="a" data-name="Layer 1" xmlns="http://www.w3.org/2000/svg" width="1532" height="446" viewBox="0 0 1532 446">
  <path d="M1411.955,299.558h-82.025l-12.911-23.405h-98.427l-12.908,23.405h-52.28l84.438-153.116h89.678l84.435,153.116ZM1297.334,240.718l-29.527-53.591-29.748,53.591h59.275Z" fill="#000" stroke-width="0"/>
  <path d="M1135.611,299.558h-80.274v-99.307l-44.839,99.307h-63.44l-44.839-99.307v99.307h-46.591v-153.116h95.15l38.938,87.713,39.59-87.713h106.304v153.116Z" fill="#000" stroke-width="0"/>
  <path d="M831.433,299.558h-78.528l-37.189-48.56h-33.686v48.56h-80.273v-153.116h181.99c14.727,0,26.612,5.031,35.655,15.093,9.184,10.062,13.778,22.457,13.778,37.185,0,12.541-3.791,23.405-11.374,32.591-7.438,9.042-17.063,15.093-28.875,18.155l38.503,50.091h0ZM735.187,214.688c4.958,0,9.117-1.385,12.47-4.156,3.497-2.916,5.246-6.854,5.246-11.811,0-9.77-5.246-15.02-15.747-15.749h-55.125v31.717h53.156Z" fill="#000" stroke-width="0"/>
  <path d="M579.316,299.558h-205.395v-153.116h205.395v34.561h-125.122v24.717h111.996l-5.687,32.593h-106.31v22.968h125.122v38.279Z" fill="#000" stroke-width="0"/>
  <path d="M200.326,299.558h-80.281v-153.116h181.99c14.732,0,26.614,5.031,35.654,15.093,9.19,10.062,13.781,22.457,13.781,37.185s-4.59,27.124-13.781,37.185c-9.04,10.062-20.922,15.093-35.654,15.093h-101.711v48.56h.001ZM255.446,214.688c9.769,0,15.021-5.323,15.752-15.968,0-9.77-5.252-15.02-15.752-15.749h-55.121v31.717h55.121Z" fill="#000" stroke-width="0"/>
</svg>