<?xml version="1.0" encoding="UTF-8"?>
<svg id="a" data-name="Layer 1" xmlns="http://www.w3.org/2000/svg" width="1532" height="446" viewBox="0 0 1532 446">
  <path d="M395.205,252.192h-10.62l3.283-17.147h10.62l1.545-7.795c1.738-8.963,5.213-15.393,10.234-19.291,5.986-4.676,13.903-6.235,22.206-6.235,4.634,0,9.075.39,13.323.974l-3.669,18.512c-1.93-.195-3.668-.39-5.213-.39-6.372,0-10.427,1.949-11.779,9.353l-.965,4.872h15.254l-3.476,17.147h-15.061l-12.937,67.031h-25.682l12.937-67.031Z" fill="#000" stroke-width="0"/>
  <path d="M434.597,287.656l9.848-52.612h26.067l-9.461,48.91c-1.738,9.548.579,15.978,9.075,15.978,8.883,0,15.255-6.82,17.572-18.317l8.882-46.571h26.068l-16.027,84.179h-24.909l2.51-12.666h-.579c-6.179,9.159-14.096,15.199-25.682,15.199-17.764-.195-27.612-12.666-23.364-34.1Z" fill="#000" stroke-width="0"/>
  <path d="M527.475,294.086l8.11-42.284h-10.427l3.283-16.758h10.62l5.02-26.695h25.489l-5.214,26.695h14.869l-3.283,16.758h-14.868l-7.531,39.167c-1.158,6.625.773,8.963,6.952,8.963,1.93,0,5.213-.195,6.179-.39l-3.669,19.097c-1.738.584-6.952,1.558-12.551,1.558-18.538,0-26.454-8.184-22.979-26.111Z" fill="#000" stroke-width="0"/>
  <path d="M575.17,287.656l9.848-52.612h26.067l-9.461,48.91c-1.738,9.548.579,15.978,9.075,15.978,8.883,0,15.255-6.82,17.572-18.317l8.882-46.571h26.068l-16.027,84.179h-24.909l2.51-12.666h-.579c-6.179,9.159-14.096,15.199-25.682,15.199-17.571-.195-27.612-12.666-23.364-34.1Z" fill="#000" stroke-width="0"/>
  <path d="M673.262,235.045h25.102l-2.703,13.835h.579c5.986-9.938,13.71-15.199,24.137-15.199,2.703,0,4.827.389,5.793.584l-4.635,23.578h-.579c-16.799-2.533-26.84,4.092-30.702,24.357l-6.951,36.829h-26.068l16.027-83.984Z" fill="#000" stroke-width="0"/>
  <path d="M745.865,283.954c.193,10.523,3.283,18.512,15.062,18.512,6.372,0,11.779-2.533,14.289-8.574h25.681c-5.213,16.173-19.695,27.67-41.129,27.67-22.592,0-39.777-13.056-39.777-38.777,0-26.501,18.537-50.273,46.149-50.273,9.655,0,16.413,1.948,22.206,5.651,13.131,8.379,17.572,24.942,14.482,45.791h-56.963ZM747.796,267.976h31.282c.386-8.963-3.476-16.563-13.324-16.563-8.303,0-14.868,6.236-17.958,16.563Z" fill="#000" stroke-width="0"/>
  <path d="M818.083,235.045h24.909l-1.931,10.912h.386c6.179-7.794,14.675-13.25,25.489-13.25,18.537,0,28.964,15.783,28.964,36.633,0,24.747-12.551,52.612-40.936,52.612-10.813,0-19.696-4.482-24.33-13.64h-.579l-7.531,38.581h-26.068l21.627-111.848ZM869.06,271.094c0-8.769-3.283-17.732-13.71-17.732-13.71,0-21.047,16.563-21.047,30.008,0,8.963,4.055,18.316,14.868,18.316,14.675,0,19.889-17.147,19.889-30.592Z" fill="#000" stroke-width="0"/>
  <path d="M909.61,235.045h25.102l-2.703,13.835h.579c5.986-9.938,13.71-15.199,24.137-15.199,2.703,0,4.827.389,5.793.584l-4.635,23.578h-.579c-16.799-2.533-26.84,4.092-30.702,24.357l-6.951,36.829h-26.068l16.027-83.984Z" fill="#000" stroke-width="0"/>
  <path d="M968.504,235.045h26.067l-16.027,84.178h-26.067l16.027-84.178ZM974.876,201.724h26.067l-4.055,21.629h-26.067l4.055-21.629Z" fill="#000" stroke-width="0"/>
  <path d="M1004.612,235.045h25.103l-2.511,12.666h.58c6.372-9.159,13.902-15.199,25.295-15.199,11.006,0,17.572,6.235,20.468,15.588h.386c7.724-10.912,16.993-15.588,27.613-15.588,17.571,0,26.647,13.835,22.399,35.464l-9.848,51.053h-26.068l9.655-50.079c1.738-9.158-.773-14.809-8.496-14.809-8.496,0-13.903,7.21-16.027,19.096l-8.883,45.792h-26.067l9.654-50.079c1.738-8.963-.772-14.809-8.496-14.809-8.496,0-13.903,7.6-16.027,19.096l-8.882,45.792h-26.068l16.22-83.984Z" fill="#000" stroke-width="0"/>
  <path d="M1139.587,235.045h26.07l-16.03,84.178h-26.069l16.029-84.178ZM1145.957,201.724h26.07l-4.06,21.629h-26.06l4.05-21.629Z" fill="#000" stroke-width="0"/>
  <path d="M1170.677,294.086l8.11-42.284h-10.62l3.28-16.758h10.62l5.02-26.695h25.49l-5.22,26.695h14.87l-3.28,16.758h-14.87l-7.53,39.167c-1.16,6.625.77,8.963,6.95,8.963,1.93,0,5.22-.195,6.18-.39l-3.67,19.097c-1.73.584-6.95,1.558-12.55,1.558-18.54,0-26.45-8.184-22.78-26.111Z" fill="#000" stroke-width="0"/>
  <path d="M1229.177,235.045h26.07l-16.02,84.178h-26.07l16.02-84.178ZM1235.557,201.724h26.06l-4.05,21.629h-26.07l4.06-21.629Z" fill="#000" stroke-width="0"/>
  <path d="M1258.147,235.044h26.45l4.44,37.608c.97,8.963,1.55,17.537,1.55,17.537h.19s3.67-8.379,7.73-17.147l17.57-38.192h26.45l-42.67,84.178h-28.19l-13.52-83.984Z" fill="#000" stroke-width="0"/>
  <path d="M1357.207,283.954c.19,10.523,3.28,18.512,15.06,18.512,6.37,0,11.78-2.533,14.29-8.574h25.68c-5.22,16.173-19.7,27.67-41.13,27.67-22.59,0-39.78-13.056-39.78-38.777,0-26.501,18.54-50.273,46.15-50.273,9.66,0,16.41,1.948,22.21,5.651,13.13,8.379,17.57,24.942,14.48,45.791h-56.96ZM1359.327,267.976h31.28c.39-8.963-3.47-16.563-13.32-16.563-8.31,0-14.87,6.236-17.96,16.563Z" fill="#000" stroke-width="0"/>
  <path d="M409.302,155.932c-.193,15.394-12.552,27.67-27.806,27.67h-51.942l-30.316,30.593,1.737,1.754,29.544-29.814h37.653v98.209c-14.675-.195-26.647-12.471-26.647-27.28v-42.674l-76.658,77.359h42.094c14.869,0,26.841,12.081,27.034,26.89h-108.133l-27.613-27.865-27.613,27.865h-35.143v-116.915h55.804l116.629-117.499c10.234,10.717,10.234,27.865-.193,38.387l-35.916,36.049,1.738,1.754,33.405-33.711h88.438c-.193,15.004-12.358,26.89-27.033,26.89h-50.205l-32.633,32.736,1.738,1.754,31.86-32.152h90.176Z" fill="#ff4e00" stroke-width="0"/>
  <path d="M368.365,319.224l-27.805-18.707c-19.503-13.055-37.847-28.059-54.453-44.817-.579-.585-1.159-1.169-1.738-1.754l-14.096-14.03-3.669-3.702-16.413-16.563-4.055-4.092-15.254-15.394-5.407-5.456-10.234-10.327-10.234-10.328-69.9-70.539,19.503-19.681,69.707,70.344,10.234,10.327,9.075,9.158,1.159,1.169,20.661,20.85,4.055,4.092,16.413,16.562,3.669,3.703,14.482,14.614c.386.39.965.974,1.352,1.364,16.413,16.758,31.281,35.075,44.218,54.56l18.73,28.645Z" fill="#000" stroke-width="0"/>
</svg>