<svg width="316" height="147" viewBox="0 0 316 147" fill="none" xmlns="http://www.w3.org/2000/svg">
<g clip-path="url(#clip0_1199_2336)">
<ellipse cx="165.661" cy="76.7087" rx="13.3799" ry="4.05493" fill="#28BB28"/>
<path d="M160.694 29.2437C161.487 28.7485 162.488 28.7313 163.298 29.1978C164.107 29.6644 164.593 30.5407 164.561 31.4742L164.227 41.1177C164.027 46.8908 157.747 50.3718 152.742 47.4839C147.736 44.5964 147.609 37.4195 152.51 34.358L160.694 29.2437ZM168.361 29.0035C169.17 28.5361 170.172 28.5526 170.964 29.0474L179.148 34.1578C184.048 37.2176 183.923 44.3965 178.92 47.2877C173.916 50.1788 167.637 46.7009 167.436 40.9263L167.1 31.2808C167.067 30.3469 167.552 29.4715 168.361 29.0035ZM139.484 24.9127C139.483 19.1337 145.635 15.435 150.736 18.148L159.257 22.6793C160.082 23.1178 160.598 23.9761 160.599 24.9107C160.599 25.845 160.084 26.7033 159.26 27.1421L150.741 31.6753C145.641 34.3888 139.486 30.6918 139.484 24.9127ZM180.581 17.7574C185.681 15.0439 191.836 18.7409 191.838 24.5201C191.84 30.2991 185.687 33.9978 180.586 31.2847L172.065 26.7535C171.24 26.3149 170.724 25.4566 170.724 24.522C170.723 23.5876 171.239 22.7294 172.063 22.2906L180.581 17.7574ZM152.404 2.1441C157.408 -0.747048 163.687 2.73084 163.889 8.50543L164.225 18.1509C164.257 19.0848 163.772 19.9613 162.963 20.4293C162.154 20.8964 161.152 20.8791 160.36 20.3843L152.176 15.274C147.276 12.2141 147.401 5.03527 152.404 2.1441ZM167.096 8.315C167.296 2.54189 173.575 -0.939115 178.58 1.94879C183.586 4.83627 183.713 12.0132 178.813 15.0748L170.628 20.189C169.836 20.6841 168.835 20.7012 168.025 20.2349C167.216 19.7683 166.729 18.8922 166.762 17.9586L167.096 8.315Z" fill="#6178EB"/>
<path d="M165.66 51.4741L165.66 73.9564" stroke="#D0D0D0" stroke-width="5.62057" stroke-linecap="round"/>
<path d="M159.715 65.8878C159.194 66.5319 158.435 66.6319 157.701 66.4138C154.743 65.5348 151.761 64.7088 148.869 63.6433C146.336 62.7098 145.032 60.6419 144.841 57.9841C144.642 55.2167 145.895 53.1035 148.265 51.7517C150.545 50.4509 152.885 50.6304 155.102 51.9907C156.797 53.0305 157.618 54.6874 158.151 56.541C158.814 58.8451 159.536 61.1316 160.225 63.4279C160.492 64.3193 160.531 65.1754 159.715 65.8875L159.715 65.8878Z" fill="#D0D0D0"/>
<path d="M171.605 65.8878C172.127 66.5319 172.886 66.6319 173.62 66.4138C176.577 65.5348 179.559 64.7088 182.451 63.6433C184.985 62.7098 186.288 60.6419 186.479 57.9841C186.679 55.2167 185.426 53.1035 183.056 51.7517C180.775 50.4509 178.436 50.6304 176.218 51.9907C174.523 53.0305 173.702 54.6874 173.169 56.541C172.507 58.8451 171.785 61.1316 171.096 63.4279C170.828 64.3193 170.79 65.1754 171.605 65.8875L171.605 65.8878Z" fill="#D0D0D0"/>
</g>
<ellipse cx="108.756" cy="119.767" rx="26.0939" ry="7.90805" fill="#28BB28"/>
<path d="M108.746 85.0869L108.746 114.714" stroke="#D0D0D0" stroke-width="7.40667" stroke-linecap="round"/>
<path d="M100.911 107.941C100.223 108.789 99.2231 108.921 98.2559 108.634C94.3583 107.476 90.4291 106.387 86.6181 104.983C83.2792 103.753 81.5619 101.028 81.3098 97.5255C81.0469 93.8787 82.6983 91.0939 85.8214 89.3125C88.8266 87.5983 91.9095 87.8349 94.8315 89.6274C97.0654 90.9977 98.147 93.1811 98.8495 95.6238C99.7223 98.66 100.674 101.673 101.582 104.699C101.935 105.874 101.985 107.002 100.91 107.94L100.911 107.941Z" fill="#D0D0D0"/>
<path d="M116.58 107.941C117.267 108.789 118.267 108.921 119.234 108.634C123.132 107.476 127.061 106.387 130.872 104.983C134.211 103.753 135.928 101.028 136.18 97.5255C136.443 93.8787 134.792 91.0939 131.669 89.3125C128.664 87.5983 125.581 87.8349 122.659 89.6274C120.425 90.9977 119.343 93.1811 118.641 95.6238C117.768 98.66 116.816 101.673 115.908 104.699C115.556 105.874 115.505 107.002 116.58 107.94L116.58 107.941Z" fill="#D0D0D0"/>
<path d="M88.8288 42.381C96.8312 40.7516 103.703 48.0885 101.667 55.9034L101.563 56.2759L97.2385 70.8595C96.9327 71.8903 96.0844 72.6682 95.0309 72.8832C94.0439 73.0842 93.0273 72.7595 92.3408 72.0353L92.2074 71.8853L82.5321 60.1515C77.2563 53.7534 80.6983 44.0368 88.8288 42.381Z" fill="#47D4FF" stroke="#F9F9F9" stroke-width="2.15251"/>
<path d="M107.211 26.9399L107.21 26.9404C111.297 34.1601 106.223 43.1297 97.9304 43.3451L82.7245 43.7399L82.7237 43.7404C81.6495 43.7683 80.6471 43.2008 80.1168 42.2649C79.6202 41.3884 79.6156 40.3217 80.0926 39.4449L80.1939 39.2724L88.3633 26.4445C92.8179 19.4502 103.123 19.7194 107.211 26.9399Z" fill="#47D4FF" stroke="#F9F9F9" stroke-width="2.15251"/>
<path d="M122.224 21.5717C130.252 23.6474 133.18 33.5303 127.575 39.6486C121.971 45.7667 111.873 43.7124 109.106 35.8929L104.031 21.5534C103.673 20.5395 103.902 19.4102 104.629 18.6172C105.354 17.8246 106.458 17.498 107.499 17.7665L122.224 21.5717Z" fill="#47D4FF" stroke="#F9F9F9" stroke-width="2.15251"/>
<path d="M134.693 34.6212C135.671 35.0669 136.323 36.0175 136.389 37.0886L137.319 52.2687C137.826 60.5457 129.332 66.3839 121.781 62.9439L121.703 62.9083C114.222 59.4339 113.087 49.2504 119.646 44.2198L131.715 34.9613C132.568 34.3073 133.713 34.1758 134.693 34.6212Z" fill="#47D4FF" stroke="#F9F9F9" stroke-width="2.15251"/>
<path d="M127.519 65.4341C128.404 66.043 128.882 67.091 128.761 68.1592L128.76 68.1605C128.639 69.2276 127.939 70.1412 126.938 70.5359L112.789 76.1118C105.074 79.1519 96.8977 72.8783 97.8351 64.6332L97.8346 64.6324C98.773 56.3897 108.15 52.1164 114.985 56.8157L127.519 65.4341Z" fill="#47D4FF" stroke="#F9F9F9" stroke-width="2.15251"/>
<ellipse cx="212.356" cy="134.667" rx="35.206" ry="10.6696" fill="#28BB28"/>
<path d="M213.048 28.4966C214.773 28.526 216.643 29.582 217.966 31.9956V31.9966C222.189 39.6973 226.335 47.4337 230.175 55.3052V55.3062C235.844 66.8899 227.75 81.8729 213.139 82.1196H212.958C198.347 81.8729 190.253 66.8899 195.922 55.3062V55.3052C199.762 47.4337 203.908 39.6972 208.131 31.9966V31.9956C209.454 29.5825 211.323 28.5264 213.048 28.4966Z" fill="#FF6301" stroke="#F9F9F9" stroke-width="2.44881"/>
<path d="M183.997 46.8212C185.129 45.5189 187.14 44.7651 189.839 45.3029L189.84 45.3036C198.454 47.0183 207.045 48.8155 215.543 50.9334L215.544 50.934C228.061 54.0372 234.337 69.8682 225.133 81.2199L225.017 81.3583C215.436 92.3927 198.756 88.962 193.526 77.1733L193.526 77.1727C189.964 69.1712 186.702 61.0227 183.518 52.8376L183.517 52.837C182.519 50.2725 182.912 48.1613 183.997 46.8212Z" fill="#FF6301" stroke="#F9F9F9" stroke-width="2.44881"/>
<path d="M242.096 46.8212C240.965 45.5189 238.954 44.7651 236.255 45.3029L236.254 45.3036C227.64 47.0183 219.049 48.8155 210.551 50.9334L210.55 50.934C198.032 54.0372 191.757 69.8682 200.96 81.2199L201.076 81.3583C210.657 92.3927 227.338 88.962 232.567 77.1733L232.568 77.1727C236.13 69.1712 239.391 61.0227 242.576 52.8376L242.576 52.837C243.575 50.2725 243.182 48.1613 242.096 46.8212Z" fill="#FF6301" stroke="#F9F9F9" stroke-width="2.44881"/>
<path d="M213.047 97.5269L213.047 129.759" stroke="#D0D0D0" stroke-width="8.05812" stroke-linecap="round"/>
<path d="M204.525 131.096C203.777 132.02 202.689 132.163 201.636 131.85C197.396 130.59 193.121 129.406 188.975 127.878C185.342 126.54 183.474 123.575 183.2 119.765C182.914 115.797 184.71 112.767 188.108 110.829C191.378 108.964 194.732 109.222 197.911 111.172C200.341 112.663 201.518 115.038 202.282 117.696C203.232 120.999 204.267 124.277 205.255 127.569C205.639 128.847 205.693 130.075 204.524 131.096L204.525 131.096Z" fill="#D0D0D0"/>
<path d="M221.571 131.096C222.319 132.02 223.407 132.163 224.459 131.85C228.7 130.59 232.975 129.406 237.121 127.878C240.753 126.54 242.622 123.575 242.896 119.765C243.182 115.797 241.385 112.767 237.988 110.829C234.718 108.964 231.364 109.222 228.185 111.172C225.755 112.663 224.578 115.038 223.814 117.696C222.864 120.999 221.828 124.277 220.841 127.569C220.457 128.847 220.402 130.075 221.571 131.096L221.571 131.096Z" fill="#D0D0D0"/>
<path d="M287.266 82.2918C291.364 81.456 294.999 82.4715 297.729 85.6912C300.566 89.0369 301.297 92.9194 299.474 96.991C297.723 100.901 294.617 103.309 290.275 103.326C286.761 103.34 283.246 103.145 279.733 102.926V123.157C279.733 125.653 277.71 127.676 275.214 127.676C272.719 127.676 270.696 125.653 270.696 123.157V102.928C267.197 103.147 263.696 103.34 260.197 103.326C255.855 103.309 252.748 100.901 250.997 96.991C249.174 92.9194 249.905 89.0369 252.743 85.6912C255.473 82.4715 259.107 81.456 263.205 82.2918C266.338 82.9307 268.49 84.9825 270.315 87.49C271.93 89.7099 273.584 91.9015 275.236 94.0945C276.887 91.9015 278.541 89.7099 280.157 87.49C281.981 84.9825 284.133 82.9307 287.266 82.2918Z" fill="#28BB28"/>
<path d="M38.5879 89.5769C41.3492 87.8831 44.2626 87.6593 47.1025 89.279C50.0542 90.9625 51.6156 93.5952 51.3672 97.0417C51.1289 100.352 49.5051 102.927 46.3496 104.09C45.4018 104.439 44.446 104.766 43.4853 105.081C44.4461 105.395 45.4017 105.724 46.3496 106.073C49.5051 107.236 51.1289 109.811 51.3672 113.121C51.6156 116.567 50.0542 119.2 47.1025 120.884C44.2626 122.503 41.3492 122.279 38.5879 120.586C38.1388 120.31 37.7413 119.997 37.3838 119.657V128.964C37.3838 131.002 35.7314 132.654 33.6934 132.654C31.6553 132.654 30.0029 131.002 30.0029 128.964V119.77C28.6771 121.018 26.9078 121.699 24.8555 121.846C21.409 122.095 18.7772 120.534 17.0937 117.583C15.4737 114.743 15.6975 111.829 17.3916 109.067C18.6867 106.956 20.7501 105.934 23.0586 105.27C23.3273 105.193 23.595 105.112 23.8633 105.034C22.9521 104.734 22.0459 104.421 21.1465 104.09C17.991 102.927 16.3672 100.352 16.1289 97.0417C15.8805 93.5952 17.4419 90.9625 20.3935 89.279C23.2335 87.6593 26.1469 87.8831 28.9082 89.5769C31.0193 90.8719 32.0422 92.9355 32.706 95.2439C33.0432 96.4167 33.3939 97.5858 33.748 98.7537C34.1022 97.5858 34.4529 96.4167 34.79 95.2439C35.4539 92.9355 36.4768 90.8719 38.5879 89.5769Z" fill="#28BB28"/>
<defs>
<clipPath id="clip0_1199_2336">
<rect width="53" height="81" fill="white" transform="translate(139.395)"/>
</clipPath>
</defs>
</svg>
