<svg width="1920" height="276" viewBox="0 0 1920 276" fill="none" xmlns="http://www.w3.org/2000/svg">
<g clip-path="url(#clip0_5_550)">
<path d="M707.138 41.3677C702.476 31.9356 689.028 23.3389 678.896 23.3389H675.258C661.837 23.3389 655.477 29.0251 652.513 33.795C649.414 38.7536 647.096 47.4581 653.591 60.5822L674.584 103.081L687.519 129.329C688.624 131.539 690.618 133.102 693.017 133.641C693.583 133.775 694.176 133.829 694.742 133.829C696.574 133.829 698.38 133.182 699.808 132.051L723.361 113.106C731.958 106.18 733.198 94.1875 726.676 81.0364L707.111 41.4216L707.138 41.3677Z" fill="black"/>
<path d="M1754 274.201C1769.17 274.201 1784.31 274.147 1799.49 274.12H1805.01C1838.24 274.066 1871.47 274.039 1904.69 274.228C1908.95 274.228 1916.98 275.71 1919.11 271.344C1920 269.485 1920.03 267.356 1920.03 265.281C1920.03 262.775 1920.03 260.241 1920.03 257.735C1920.03 242.644 1919.97 227.552 1919.97 212.461C1919.97 195.564 1904.72 180.284 1887.04 180.284C1871.49 180.284 1874.22 176.026 1874.24 160.908C1874.24 143.795 1878.93 119.811 1871.14 104.019L1838.02 36.943C1829.18 19.022 1800.19 0.34639 1781.24 0.34639H1585.92C1572.98 0.34639 1579.21 27.1875 1578.53 34.2211C1564.63 18.2135 1545.79 0.34639 1522.72 0.34639H1481.03C1472.25 0.34639 1468.18 4.63126 1468.23 13.3357C1468.31 30.6639 1464.54 53.0853 1468.72 69.7936C1467.66 72.9197 1468.23 77.0159 1470.57 81.7859L1518.97 179.772C1511 177.913 1501.19 170.933 1497.87 164.196L1459.47 86.4211C1448.34 63.8918 1417.22 39.0989 1387.06 28.7775L1331.81 9.85934C1313.46 3.58026 1296.4 0.319441 1281.88 0.319441H1198.98C1188.53 0.319441 1183.43 6.49073 1181.14 15.1413C1171.36 5.38583 1153.57 0.319441 1137.76 0.319441H942.835C914.296 0.319441 926.585 41.4165 925.048 57.6128C920.71 51.5762 917.691 43.761 914.296 36.916C905.457 18.995 876.46 0.319441 857.515 0.319441H823.209C811.27 0.319441 805.503 5.97871 805.557 17.7554C805.638 29.5859 805.18 41.0392 804.183 52.9506C795.182 36.7004 785.48 19.7226 769.553 10.1558C752.926 0.238595 732.445 -0.00394518 713.095 0.0769015C661.542 0.265544 609.989 0.454186 558.436 0.669777C553.45 0.669777 547.764 1.02011 544.611 4.90075C542.24 7.83818 542.105 11.9614 542.078 15.7342C541.997 34.7601 541.889 53.7591 541.808 72.785C531.217 46.402 514.563 20.585 488.719 8.75444C469.612 -0.00394506 447.811 -0.0578429 426.791 -0.00394517C377.124 0.184697 327.484 0.373339 277.817 0.561981C274.88 0.561981 271.673 0.669777 269.355 2.5023C266.795 4.52347 266.067 8.08072 265.636 11.3415C263.642 25.7322 263.373 40.3385 264.774 54.7831C265.636 63.5954 267.226 72.5694 271.808 80.169C276.389 87.7416 284.5 93.6973 293.367 93.5356C291.911 101.297 292.1 109.085 293.34 116.792C291.723 113.505 290.726 111.537 290.726 111.537C284.204 98.3325 270.676 88.3075 257.848 81.7859C248.362 76.989 247.554 78.6059 246.961 67.7455C246.422 57.6397 247.122 47.3183 247.203 37.2125C247.257 31.9574 247.284 26.5677 245.721 21.5552C242.245 10.3175 225.482 0.427237 214.083 0.427237H17.7604C6.41491 0.373339 0.324462 5.46668 0.270564 16.9469C0.189718 31.7149 0.108871 46.4829 0.00107543 61.2239C-0.0258735 67.7725 -0.0797713 74.375 1.21378 80.7888C6.5766 107.414 26.3301 135.36 38.3493 159.722C42.9845 169.127 51.3387 176.673 59.8006 182.629C65.5138 186.644 84.2163 191.603 84.0816 198.852L83.4348 235.098C83.327 240.623 83.2462 246.255 84.7014 251.591C90.738 273.851 118.576 275.279 137.467 274.875C169.779 274.201 202.199 274.524 234.591 274.363C249.117 274.282 263.642 274.228 278.194 274.228H313.012C319.561 274.228 326.729 272.773 329.37 265.955C330.475 263.098 330.691 260.026 330.718 256.981C330.718 256.199 330.718 255.418 330.718 254.636C330.637 241.189 333.224 222.971 332.2 206.937C336.027 214.24 339.907 221.543 343.869 228.765C350.714 241.296 358.125 254.124 369.74 262.451C370.225 262.802 370.737 263.098 371.222 263.421L378.822 267.625C388.82 272.153 400.057 273.824 411.457 274.309L416.712 274.443C421.643 274.524 426.575 274.443 431.426 274.309C439.025 274.12 447.541 273.5 452.5 267.76C457.512 261.939 456.758 253.316 456.407 245.608C455.599 228.846 461.043 208.23 477.347 204.269C482.305 227.579 496.912 248.653 516.962 261.481C537.038 274.309 562.316 278.701 585.519 273.419C593.901 271.506 599.722 267.733 601.015 258.786C602.093 251.402 601.365 243.371 601.419 235.907C601.5 227.903 601.581 219.899 601.662 211.895C598.994 201.735 600.045 190.875 604.006 178.694C603.629 179.826 604.977 182.898 605.273 184.057C605.785 186.132 606.324 188.234 606.917 190.282C607.995 194.19 609.181 198.07 610.501 201.924C613.034 209.416 615.999 216.773 619.367 223.914C622.736 231.056 626.374 237.712 630.47 244.261C634.108 250.136 637.396 256.469 642.894 260.861C650.224 266.736 660.141 270.105 669.142 272.422L673.561 273.446C682.913 275.36 692.533 275.845 701.993 274.848L712.125 273.177C716.168 272.207 720.129 270.751 723.094 267.895C733.846 257.439 723.956 238.763 728.564 224.48C731.178 216.342 738.239 210.575 744.949 205.293C770.847 184.892 815.717 164.384 814.989 127.572C814.828 119.919 813.669 111.295 815.043 103.884C822.185 110.055 826.416 124.419 830.7 133.097C838.246 148.377 845.792 163.657 853.337 178.964C862.985 198.502 872.525 218.066 882.281 237.55C890.257 253.693 914.511 270.401 933.106 273.554L943.886 274.147H973.341C985.037 274.147 990.965 268.622 990.938 256.927C990.938 244.368 988.998 229.762 991.45 217.608C995.735 223.375 998.592 230.948 1001.85 237.577C1010.69 255.498 1039.69 274.174 1058.63 274.174H1349.04C1362.48 274.174 1366.71 267.194 1366.69 254.555C1366.61 234.559 1372.43 203.891 1363.45 185.728L1318.29 94.2093H1318.88C1321.44 94.2093 1324.46 94.7753 1327.69 95.9071C1331.3 97.1468 1335.02 100.111 1336.34 102.806L1402.91 237.577C1411.75 255.498 1440.74 274.174 1459.69 274.174H1638.47C1663.18 274.174 1655.12 244.8 1656.39 229.601C1658.19 231.945 1659.51 234.802 1660.89 237.577C1669.73 255.498 1698.72 274.174 1717.67 274.174C1725.67 274.174 1733.68 274.174 1741.68 274.147H1753.94L1754 274.201ZM321.986 200.469C320.881 202.247 317.594 203.271 312.985 203.271H116.717C109.602 203.271 97.071 195.348 92.7052 188.396H197.617C211.038 188.396 217.398 182.709 220.362 177.94C223.461 172.954 225.779 164.276 219.284 151.152L203.95 120.107C202.845 117.897 200.851 116.334 198.426 115.795C197.86 115.661 197.267 115.607 196.701 115.607C194.868 115.607 193.063 116.254 191.635 117.385C185.167 122.587 174.98 125.335 162.126 125.335H95.2115C79.15 125.335 53.2251 108.546 45.6525 93.2392L10.6189 22.3636C7.76235 16.5966 7.81625 12.8507 8.78641 11.2876C9.89132 9.50901 13.1791 8.458 17.7873 8.458H214.056C221.171 8.458 233.702 16.381 238.068 23.3338H133.156C119.735 23.3338 113.375 29.02 110.411 33.7899C107.312 38.7485 104.994 47.453 111.489 60.5502L136.821 111.861C137.899 114.071 139.92 115.661 142.345 116.2C142.911 116.334 143.504 116.388 144.07 116.388C145.902 116.388 147.708 115.741 149.136 114.61L178.591 90.9216C185.059 85.7204 195.246 82.9717 208.073 82.9717H233.89C249.952 82.9717 275.877 99.7608 283.422 115.068L320.127 189.393C322.983 195.16 322.93 198.906 321.959 200.469H321.986ZM592.634 200.469C591.529 202.247 588.241 203.271 583.633 203.271H549.354C533.293 203.271 507.368 186.482 499.795 171.175L483.168 137.543C482.09 135.333 480.069 133.743 477.643 133.204C477.077 133.07 476.484 133.016 475.918 133.016C474.086 133.016 472.28 133.662 470.852 134.794L438.675 160.692C435.711 163.091 434.794 167.16 436.492 170.582L445.763 189.366C448.619 195.133 448.565 198.879 447.595 200.442C446.49 202.22 443.202 203.245 438.594 203.245H404.288C388.227 203.245 362.302 186.455 354.729 171.148L303.904 68.2037C301.047 62.4366 301.101 58.6907 302.071 57.1277C303.176 55.3491 306.464 54.298 311.072 54.298H345.378C361.44 54.298 387.364 71.0872 394.91 86.3942L416.065 129.216C417.143 131.426 419.164 133.016 421.589 133.555C422.155 133.689 422.748 133.743 423.314 133.743C425.147 133.743 426.952 133.124 428.381 131.965L460.557 106.067C463.495 103.695 464.411 99.653 462.74 96.2036L451.26 72.9467C438.891 47.8842 400.596 23.3068 373.971 23.3068H298.46C291.345 23.3068 278.814 15.3839 274.448 8.43105H458.698C479.071 8.43105 511.922 29.6937 521.489 49.07L590.748 189.366C593.604 195.133 593.55 198.879 592.58 200.442L592.634 200.469ZM805.234 84.1574L710.104 160.773C707.167 163.118 706.25 167.295 707.921 170.663L717.165 189.393C720.021 195.16 719.967 198.906 718.997 200.469C717.892 202.247 714.605 203.271 709.996 203.271H675.717C659.656 203.271 633.731 186.482 626.158 171.175L552.669 22.3367C549.812 16.5696 549.866 12.8507 550.836 11.2607C551.941 9.48206 555.229 8.43105 559.837 8.43105H739.182C755.244 8.43105 781.168 25.2202 788.714 40.5272L804.156 71.8148C805.234 74.0246 808.548 81.4356 805.18 84.1305L805.234 84.1574ZM982.315 200.469C981.21 202.247 977.922 203.271 973.314 203.271H939.035C922.973 203.271 897.049 186.482 889.476 171.175L815.986 22.3367C813.13 16.5696 813.184 12.8507 814.154 11.2607C815.259 9.48206 818.546 8.43105 823.155 8.43105H857.461C873.522 8.43105 899.447 25.2202 906.993 40.5272L980.455 189.366C983.312 195.133 983.258 198.879 982.288 200.442L982.315 200.469ZM1058.66 203.271C1042.6 203.271 1016.67 186.482 1009.13 171.175L935.639 22.3367C932.783 16.5696 932.837 12.8237 933.807 11.2607C934.912 9.48206 938.2 8.43105 942.808 8.43105H1137.73C1145.87 8.43105 1160.58 18.0249 1164.44 25.8131C1167.86 32.7389 1168.69 38.8024 1166.67 42.0363C1164.81 45.0276 1160.1 46.6715 1153.33 46.6715H1100.03C1097.31 46.6715 1090.68 42.6022 1089.14 39.5031C1084.96 31.0412 1072.86 23.3068 1063.75 23.3068H1058.18C1044.76 23.3068 1038.4 28.993 1035.43 33.763C1032.33 38.7216 1030.01 47.4261 1036.48 60.5502L1052.95 93.9129C1054.32 96.6886 1057.1 98.4134 1060.2 98.4134H1117.36C1124.47 98.4134 1137 106.336 1141.37 113.289H1075.5C1072.7 113.289 1070.11 114.717 1068.63 117.116C1067.15 119.514 1067.02 122.452 1068.25 124.958L1079.28 147.299C1089.52 168.049 1121.24 188.396 1143.33 188.396H1227.9C1235.01 188.396 1247.55 196.319 1251.91 203.271H1058.61H1058.66ZM1647.52 200.469C1646.42 202.247 1643.13 203.271 1638.52 203.271H1459.74C1443.68 203.271 1417.75 186.482 1410.21 171.175L1343.65 36.404C1341.35 31.7957 1336.02 27.4031 1330.36 25.4627C1326.26 24.0614 1322.41 23.3338 1318.93 23.3338H1299.58C1291.01 23.3338 1287.08 27.6187 1285.49 30.1788C1283.85 32.7928 1281.72 38.4252 1285.76 46.6176L1356.26 189.393C1359.11 195.16 1359.06 198.906 1358.09 200.469C1356.99 202.247 1353.7 203.271 1349.09 203.271H1314.81C1298.75 203.271 1272.82 186.482 1265.28 171.175L1191.79 22.3367C1188.93 16.5696 1188.99 12.8507 1189.96 11.2607C1191.06 9.48206 1194.35 8.43105 1198.96 8.43105H1281.85C1295.38 8.43105 1311.76 11.5841 1329.17 17.5398L1384.42 36.4579C1412.77 46.1595 1441.93 69.2008 1452.2 90.0323L1490.57 167.807C1495.88 178.586 1511.24 188.396 1522.77 188.396H1537.38C1546.17 188.396 1550.18 184.03 1551.8 181.416C1553.47 178.721 1555.65 172.981 1551.5 164.546L1477.82 15.3569C1475.96 11.611 1476.21 9.7246 1476.4 9.45511C1476.53 9.26647 1477.74 8.43105 1481.08 8.43105H1522.75C1538.81 8.43105 1564.73 25.2202 1572.28 40.5272L1645.74 189.366C1648.6 195.133 1648.55 198.879 1647.57 200.442L1647.52 200.469ZM1717.72 203.271C1701.66 203.271 1675.74 186.482 1668.19 171.175L1630.92 95.7185C1629.06 91.9726 1629.3 90.0862 1629.49 89.7897C1629.63 89.6011 1630.84 88.7926 1634.15 88.7926H1709.18C1711.34 88.7926 1714.17 89.3585 1717.18 90.3826L1741.76 98.7637C1745.88 100.165 1749.77 100.893 1753.21 100.893C1759.57 100.893 1764.56 98.4673 1767.31 94.0476C1768.93 91.4336 1771.05 85.8013 1767.01 77.6088L1760.49 64.4308C1750.25 43.6802 1718.53 23.3338 1696.46 23.3338H1611.92C1604.81 23.3338 1592.28 15.4108 1587.91 8.458H1781.19C1797.25 8.458 1823.17 25.2472 1830.72 40.5541L1863.84 107.63C1866.67 113.397 1866.64 117.116 1865.67 118.706C1864.57 120.484 1861.28 121.535 1856.67 121.535H1793.58C1788.76 121.535 1782.8 120.35 1776.39 118.113C1768.58 115.391 1758.63 111.996 1751.68 109.624C1748.18 108.438 1744.89 107.819 1741.92 107.819C1736.29 107.819 1731.66 110.109 1729.18 114.098C1727.69 116.496 1725.73 121.616 1729.34 128.946L1738.39 147.299C1748.63 168.049 1780.35 188.396 1802.42 188.396H1886.99C1894.1 188.396 1906.63 196.319 1911 203.271H1717.7H1717.72Z" fill="black"/>
</g>
<defs>
<clipPath id="clip0_5_550">
<rect width="1920" height="275.687" fill="white"/>
</clipPath>
</defs>
</svg>
